<?xml version="1.0" encoding="UTF-8"?>
<svg xmlns="http://www.w3.org/2000/svg" xmlns:xlink="http://www.w3.org/1999/xlink" viewBox="0 0 2542.55 1386.92">
  <defs>
    <style>
      .cls-1 {
        fill: url(#radial-gradient-30);
      }

      .cls-1, .cls-2, .cls-3, .cls-4, .cls-5, .cls-6, .cls-7, .cls-8, .cls-9, .cls-10, .cls-11, .cls-12, .cls-13, .cls-14, .cls-15, .cls-16, .cls-17, .cls-18, .cls-19, .cls-20, .cls-21, .cls-22, .cls-23, .cls-24, .cls-25, .cls-26, .cls-27, .cls-28, .cls-29, .cls-30, .cls-31, .cls-32, .cls-33, .cls-34, .cls-35, .cls-36, .cls-37, .cls-38, .cls-39, .cls-40, .cls-41, .cls-42, .cls-43, .cls-44, .cls-45, .cls-46, .cls-47, .cls-48, .cls-49, .cls-50, .cls-51 {
        stroke-width: 0px;
      }

      .cls-2 {
        fill: url(#radial-gradient-16);
      }

      .cls-3 {
        fill: url(#linear-gradient);
      }

      .cls-4 {
        fill: #000;
      }

      .cls-5, .cls-12 {
        fill: #00308f;
      }

      .cls-6 {
        fill: url(#linear-gradient-6);
      }

      .cls-7 {
        fill: url(#radial-gradient-36);
      }

      .cls-7, .cls-23 {
        opacity: .93;
      }

      .cls-8 {
        fill: url(#radial-gradient-8);
      }

      .cls-9 {
        fill: url(#radial-gradient-13);
      }

      .cls-10 {
        fill: url(#radial-gradient-12);
      }

      .cls-11 {
        fill: url(#linear-gradient-11);
      }

      .cls-12 {
        fill-rule: evenodd;
      }

      .cls-13 {
        fill: url(#linear-gradient-5);
      }

      .cls-14 {
        fill: url(#radial-gradient-35);
      }

      .cls-15 {
        fill: url(#radial-gradient-27);
      }

      .cls-16 {
        fill: url(#radial-gradient-29);
      }

      .cls-17 {
        fill: url(#radial-gradient-22);
      }

      .cls-18 {
        fill: url(#radial-gradient-19);
      }

      .cls-19 {
        fill: url(#radial-gradient-20);
      }

      .cls-20 {
        fill: url(#radial-gradient-25);
      }

      .cls-21 {
        fill: url(#linear-gradient-2);
      }

      .cls-22 {
        fill: url(#radial-gradient-33);
      }

      .cls-23 {
        fill: url(#linear-gradient-10);
      }

      .cls-24 {
        fill: url(#radial-gradient-17);
      }

      .cls-25 {
        fill: url(#radial-gradient-32);
      }

      .cls-26 {
        fill: url(#radial-gradient-21);
      }

      .cls-27 {
        fill: url(#linear-gradient-7);
      }

      .cls-52 {
        fill: none;
        stroke: #000;
        stroke-miterlimit: 10;
        stroke-width: .25px;
      }

      .cls-28 {
        fill: url(#radial-gradient-2);
      }

      .cls-29 {
        fill: url(#radial-gradient-7);
      }

      .cls-30 {
        fill: url(#linear-gradient-3);
      }

      .cls-31 {
        fill: url(#radial-gradient-34);
      }

      .cls-32 {
        fill: url(#radial-gradient-26);
      }

      .cls-33 {
        fill: url(#radial-gradient-5);
      }

      .cls-34 {
        fill: url(#radial-gradient-24);
      }

      .cls-35 {
        fill: url(#linear-gradient-9);
      }

      .cls-36 {
        fill: url(#radial-gradient);
      }

      .cls-37 {
        fill: url(#radial-gradient-31);
      }

      .cls-38 {
        fill: url(#radial-gradient-14);
      }

      .cls-39 {
        fill: url(#linear-gradient-8);
      }

      .cls-40 {
        fill: url(#radial-gradient-18);
      }

      .cls-41 {
        fill: url(#radial-gradient-10);
      }

      .cls-42 {
        fill: #fff;
      }

      .cls-43 {
        fill: url(#radial-gradient-28);
      }

      .cls-44 {
        fill: url(#radial-gradient-6);
      }

      .cls-45 {
        fill: url(#radial-gradient-15);
      }

      .cls-46 {
        fill: url(#radial-gradient-9);
      }

      .cls-47 {
        fill: url(#radial-gradient-3);
      }

      .cls-48 {
        fill: url(#radial-gradient-11);
      }

      .cls-49 {
        fill: url(#linear-gradient-4);
      }

      .cls-50 {
        fill: url(#radial-gradient-4);
      }

      .cls-51 {
        fill: url(#radial-gradient-23);
      }
    </style>
    <symbol id="New_Symbol_2" data-name="New Symbol 2" viewBox="0 0 24.96 24.69">
      <g>
        <circle class="cls-5" cx="12.41" cy="12.35" r="3.62"/>
        <circle class="cls-52" cx="17.31" cy="7.45" r="2.16"/>
        <circle class="cls-52" cx="12.64" cy="6.17" r="1.5"/>
        <circle class="cls-4" cx="6.23" cy="12.58" r="1.5"/>
        <circle class="cls-4" cx="12.48" cy="18.83" r="1.5"/>
        <circle class="cls-52" cx="18.89" cy="12.42" r="1.5"/>
        <circle class="cls-52" cx="21.62" cy="9.38" r="1.28"/>
        <circle class="cls-52" cx="15.53" cy="3.28" r="1.28"/>
        <circle class="cls-4" cx="9.43" cy="3.27" r="1.28"/>
        <circle class="cls-4" cx="3.33" cy="9.37" r="1.28"/>
        <circle class="cls-4" cx="3.01" cy="15.8" r="1.28"/>
        <circle class="cls-4" cx="9.1" cy="21.89" r="1.28"/>
        <circle class="cls-4" cx="15.69" cy="21.73" r="1.28"/>
        <circle class="cls-52" cx="21.79" cy="15.64" r="1.28"/>
        <circle class="cls-52" cx="23.92" cy="12.65" r=".91"/>
        <circle class="cls-52" cx="20.38" cy="4.37" r=".91"/>
        <circle class="cls-52" cx="12.52" cy="1.03" r=".91"/>
        <circle class="cls-4" cx="4.43" cy="4.37" r=".91"/>
        <circle class="cls-4" cx=".91" cy="12.64" r=".91"/>
        <circle class="cls-4" cx="4.43" cy="20.32" r=".91"/>
        <circle class="cls-4" cx="12.58" cy="23.79" r=".91"/>
        <circle class="cls-52" cx="20.65" cy="20.59" r=".91"/>
        <circle class="cls-4" cx="7.54" cy="7.48" r="2.16"/>
        <circle class="cls-4" cx="7.54" cy="7.48" r="2.16"/>
        <circle class="cls-4" cx="7.51" cy="17.25" r="2.16"/>
        <circle class="cls-52" cx="17.21" cy="17.15" r="2.16"/>
      </g>
    </symbol>
    <radialGradient id="radial-gradient" cx="703.56" cy="78.94" fx="739.71" fy="123.59" r="119.19" gradientTransform="translate(1353.2 357.9) rotate(-162.42) scale(1 .88)" gradientUnits="userSpaceOnUse">
      <stop offset="0" stop-color="#000"/>
      <stop offset=".02" stop-color="#000207"/>
      <stop offset=".18" stop-color="#001a4f"/>
      <stop offset=".29" stop-color="#002a7c"/>
      <stop offset=".35" stop-color="#00308e"/>
      <stop offset=".48" stop-color="#002f8c"/>
      <stop offset=".61" stop-color="#00308e"/>
      <stop offset=".75" stop-color="#00308f"/>
      <stop offset=".76" stop-color="#00308f"/>
      <stop offset=".93" stop-color="#00308f"/>
    </radialGradient>
    <radialGradient id="radial-gradient-2" cx="1893.54" cy="472.39" fx="1994.47" fy="597.05" r="332.76" gradientTransform="translate(3572.64 1441.98) rotate(-162.42) scale(1 .88)" xlink:href="#radial-gradient"/>
    <linearGradient id="linear-gradient" x1="667.44" y1="155.43" x2="630.61" y2="155.43" gradientUnits="userSpaceOnUse">
      <stop offset="0" stop-color="#000"/>
      <stop offset=".06" stop-color="#00050f"/>
      <stop offset=".61" stop-color="#00308e"/>
    </linearGradient>
    <radialGradient id="radial-gradient-3" cx="732.08" cy="59.67" fx="732.08" fy="59.67" r="11.56" gradientTransform="translate(87.83 450.74) rotate(-45) scale(1 3)" gradientUnits="userSpaceOnUse">
      <stop offset="0" stop-color="#000"/>
      <stop offset=".05" stop-color="#000207"/>
      <stop offset=".71" stop-color="#002368"/>
      <stop offset="1" stop-color="#00308f"/>
    </radialGradient>
    <radialGradient id="radial-gradient-4" cx="752.86" cy="62.56" fx="752.86" fy="62.56" r="8.67" gradientTransform="translate(87.79 462.2) rotate(-45) scale(1 3)" xlink:href="#radial-gradient-3"/>
    <radialGradient id="radial-gradient-5" cx="771.73" cy="62.55" fx="771.73" fy="62.55" r="8.29" gradientTransform="translate(93.34 475.55) rotate(-45) scale(1 3)" xlink:href="#radial-gradient-3"/>
    <radialGradient id="radial-gradient-6" cx="787.65" cy="62.56" fx="787.65" fy="62.56" r="8.67" gradientTransform="translate(97.98 486.8) rotate(-45) scale(1 3)" xlink:href="#radial-gradient-3"/>
    <radialGradient id="radial-gradient-7" cx="807.79" fx="807.79" r="11.11" gradientTransform="translate(110.01 504.28) rotate(-45) scale(1 3)" xlink:href="#radial-gradient-3"/>
    <radialGradient id="radial-gradient-8" cx="827.86" cy="62.56" fx="827.86" fy="62.56" r="8.67" gradientTransform="translate(109.75 515.23) rotate(-45) scale(1 3)" xlink:href="#radial-gradient-3"/>
    <radialGradient id="radial-gradient-9" cx="846.43" cy="62.56" fx="846.43" fy="62.56" r="8.67" gradientTransform="translate(115.19 528.36) rotate(-45) scale(1 3)" xlink:href="#radial-gradient-3"/>
    <radialGradient id="radial-gradient-10" cx="857.3" cy="70.03" fx="857.3" fy="70.03" r="1.47" gradientTransform="translate(102.54 527.67) rotate(-45) scale(1 3)" xlink:href="#radial-gradient-3"/>
    <radialGradient id="radial-gradient-11" cx="862.22" cy="60.8" fx="862.22" fy="60.8" r="7.45" gradientTransform="translate(123.57 541.51) rotate(-45) scale(1 3)" xlink:href="#radial-gradient-3"/>
    <radialGradient id="radial-gradient-12" cx="874.01" cy="62.56" fx="874.01" fy="62.56" r="8.67" gradientTransform="translate(123.27 547.87) rotate(-45) scale(1 3)" xlink:href="#radial-gradient-3"/>
    <radialGradient id="radial-gradient-13" cx="2276.49" cy="782.54" fx="2276.49" fy="782.54" r="15.8" gradientTransform="translate(-993.24 732.25) rotate(-45) scale(1 3)" xlink:href="#radial-gradient-3"/>
    <radialGradient id="radial-gradient-14" cx="2304.91" cy="786.49" fx="2304.91" fy="786.49" r="11.86" gradientTransform="translate(-993.3 747.91) rotate(-45) scale(1 3)" xlink:href="#radial-gradient-3"/>
    <radialGradient id="radial-gradient-15" cx="2330.71" cy="786.47" fx="2330.71" fy="786.47" r="11.34" gradientTransform="translate(-985.71 766.18) rotate(-45) scale(1 3)" xlink:href="#radial-gradient-3"/>
    <radialGradient id="radial-gradient-16" cx="2352.49" cy="786.49" fx="2352.49" fy="786.49" r="11.86" gradientTransform="translate(-979.37 781.55) rotate(-45) scale(1 3)" xlink:href="#radial-gradient-3"/>
    <radialGradient id="radial-gradient-17" cx="2380.03" cy="782.54" fx="2380.03" fy="782.54" r="15.19" gradientTransform="translate(-962.92 805.46) rotate(-45) scale(1 3)" xlink:href="#radial-gradient-3"/>
    <radialGradient id="radial-gradient-18" cx="2407.47" cy="786.49" fx="2407.47" fy="786.49" r="11.86" gradientTransform="translate(-963.26 820.43) rotate(-45) scale(1 3)" xlink:href="#radial-gradient-3"/>
    <radialGradient id="radial-gradient-19" cx="2432.87" cy="786.49" fx="2432.87" fy="786.49" r="11.86" gradientTransform="translate(-955.83 838.39) rotate(-45) scale(1 3)" xlink:href="#radial-gradient-3"/>
    <radialGradient id="radial-gradient-20" cx="2447.73" cy="796.7" fx="2447.73" fy="796.7" r="2.01" gradientTransform="translate(-973.13 837.45) rotate(-45) scale(1 3)" xlink:href="#radial-gradient-3"/>
    <radialGradient id="radial-gradient-21" cx="2454.46" cy="784.07" fx="2454.46" fy="784.07" r="10.19" gradientTransform="translate(-944.37 856.37) rotate(-45) scale(1 3)" xlink:href="#radial-gradient-3"/>
    <radialGradient id="radial-gradient-22" cx="2470.59" cy="786.49" fx="2470.59" fy="786.49" r="11.86" gradientTransform="translate(-944.78 865.07) rotate(-45) scale(1 3)" xlink:href="#radial-gradient-3"/>
    <radialGradient id="radial-gradient-23" cx="1754.75" cy="795.19" fx="1790.9" fy="839.84" gradientTransform="translate(3215.44 1994.55) rotate(-162.42) scale(1 .88)" xlink:href="#radial-gradient"/>
    <radialGradient id="radial-gradient-24" cx="1781.29" cy="789.18" fx="1781.29" fy="789.18" r="15.22" gradientTransform="translate(-1152.38 374.64) rotate(-45) scale(1 3)" xlink:href="#radial-gradient-3"/>
    <radialGradient id="radial-gradient-25" cx="1808.66" cy="792.99" fx="1808.66" fy="792.99" r="11.42" gradientTransform="translate(-1152.44 389.72) rotate(-45) scale(1 3)" xlink:href="#radial-gradient-3"/>
    <radialGradient id="radial-gradient-26" cx="1833.51" cy="792.97" fx="1833.51" fy="792.97" r="10.92" gradientTransform="translate(-1145.12 407.31) rotate(-45) scale(1 3)" xlink:href="#radial-gradient-3"/>
    <radialGradient id="radial-gradient-27" cx="1854.49" cy="792.99" fx="1854.49" fy="792.99" r="11.42" gradientTransform="translate(-1139.02 422.13) rotate(-45) scale(1 3)" xlink:href="#radial-gradient-3"/>
    <radialGradient id="radial-gradient-28" cx="1881.01" cy="789.18" fx="1881.01" fy="789.18" r="14.63" gradientTransform="translate(-1123.17 445.15) rotate(-45) scale(1 3)" xlink:href="#radial-gradient-3"/>
    <radialGradient id="radial-gradient-29" cx="1907.45" cy="792.99" fx="1907.45" fy="792.99" r="11.42" gradientTransform="translate(-1123.5 459.57) rotate(-45) scale(1 3)" xlink:href="#radial-gradient-3"/>
    <radialGradient id="radial-gradient-30" cx="1931.9" cy="792.99" fx="1931.9" fy="792.99" r="11.42" gradientTransform="translate(-1116.34 476.87) rotate(-45) scale(1 3)" xlink:href="#radial-gradient-3"/>
    <radialGradient id="radial-gradient-31" cx="1946.22" cy="802.82" fx="1946.22" fy="802.82" r="1.94" gradientTransform="translate(-1133.01 475.96) rotate(-45) scale(1 3)" xlink:href="#radial-gradient-3"/>
    <radialGradient id="radial-gradient-32" cx="1952.7" cy="790.66" fx="1952.7" fy="790.66" r="9.82" gradientTransform="translate(-1105.31 494.19) rotate(-45) scale(1 3)" xlink:href="#radial-gradient-3"/>
    <radialGradient id="radial-gradient-33" cx="1968.24" cy="792.99" fx="1968.24" fy="792.99" r="11.42" gradientTransform="translate(-1105.7 502.56) rotate(-45) scale(1 3)" xlink:href="#radial-gradient-3"/>
    <radialGradient id="radial-gradient-34" cx="978.31" cy="84.8" fx="1028.9" fy="147.28" r="166.79" gradientTransform="translate(1888.3 451.69) rotate(-162.42) scale(1 .88)" xlink:href="#radial-gradient"/>
    <radialGradient id="radial-gradient-35" cx="1802.04" cy="669.71" fx="1879.43" fy="765.31" r="255.17" gradientTransform="translate(3341.28 1777.75) rotate(-162.42) scale(1 .88)" xlink:href="#radial-gradient"/>
    <linearGradient id="linear-gradient-2" x1="590.32" y1="155.43" x2="535.68" y2="155.43" gradientUnits="userSpaceOnUse">
      <stop offset="0" stop-color="#000"/>
      <stop offset=".11" stop-color="#00050f"/>
      <stop offset="1" stop-color="#00308e"/>
    </linearGradient>
    <linearGradient id="linear-gradient-3" x1="2209.13" y1="628.74" x2="2333.94" y2="628.74" gradientUnits="userSpaceOnUse">
      <stop offset="0" stop-color="#00308f"/>
      <stop offset=".19" stop-color="#002e8b"/>
      <stop offset=".35" stop-color="#002b80"/>
      <stop offset=".51" stop-color="#00256e"/>
      <stop offset=".67" stop-color="#001c55"/>
      <stop offset=".81" stop-color="#001134"/>
      <stop offset=".96" stop-color="#00040c"/>
      <stop offset="1" stop-color="#000"/>
    </linearGradient>
    <linearGradient id="linear-gradient-4" x1="421.89" y1="161.25" x2="385.06" y2="161.25" xlink:href="#linear-gradient"/>
    <linearGradient id="linear-gradient-5" x1="2354.97" y1="439.45" x2="2192.57" y2="439.45" xlink:href="#linear-gradient"/>
    <linearGradient id="linear-gradient-6" x1="2253.13" y1="782.81" x2="2209.13" y2="782.81" xlink:href="#linear-gradient"/>
    <linearGradient id="linear-gradient-7" x1="1104.44" y1="64.35" x2="1016.56" y2="64.35" xlink:href="#linear-gradient"/>
    <linearGradient id="linear-gradient-8" x1="2516.66" y1="628.74" x2="2370.26" y2="628.74" xlink:href="#linear-gradient"/>
    <linearGradient id="linear-gradient-9" x1="1200.05" y1="70.35" x2="1132.4" y2="70.35" xlink:href="#linear-gradient-2"/>
    <radialGradient id="radial-gradient-36" cx="93.59" cy="122.69" fx="93.59" fy="122.69" r="99.3" gradientTransform="translate(-232.86 -71.4) rotate(-45) scale(1 3)" xlink:href="#radial-gradient-3"/>
    <linearGradient id="linear-gradient-10" x1="1860.08" y1="610.71" x2="1976.64" y2="675.64" gradientUnits="userSpaceOnUse">
      <stop offset="0" stop-color="#00308f"/>
      <stop offset=".05" stop-color="#002d86"/>
      <stop offset=".71" stop-color="#000c26"/>
      <stop offset="1" stop-color="#000"/>
    </linearGradient>
    <linearGradient id="linear-gradient-11" x1="992.09" y1="1313.73" x2="845.7" y2="1313.73" xlink:href="#linear-gradient"/>
  </defs>
  <g id="Layer_1" data-name="Layer 1">
    <path class="cls-5" d="M376.65,34.79h0c0,12.26-13.71,19.53-23.86,12.65l-28.75-19.47c-4.22-2.86-6.73-7.62-6.71-12.71h0c.05-12.23,13.73-19.46,23.86-12.6l28.75,19.48c4.2,2.84,6.71,7.58,6.71,12.65Z"/>
    <path class="cls-5" d="M381.59,104h0c-2.94,0-5.8-.88-8.24-2.52l-49.56-33.46c-4.05-2.74-6.48-7.31-6.48-12.2h0c0-11.8,13.18-18.8,22.96-12.2l36.39,24.57,13.17,8.89c12.03,8.12,6.28,26.92-8.24,26.92Z"/>
    <path class="cls-5" d="M334.3,104h0c6.78,0,12.29-5.58,12.32-12.49h0c.06-10.1-11.02-16.14-19.23-10.48h0c-10.07,6.94-5.25,22.97,6.9,22.97Z"/>
    <path class="cls-12" d="M630.61,26.08c0,7.55-6.12,13.67-13.67,13.67h-21.66l15.32,15.32c5.33,5.34,5.33,13.99,0,19.33-5.34,5.33-13.99,5.33-19.33,0l-38.65-38.65c-.63-.63-1.19-1.32-1.67-2.03-.12-.18-.24-.36-.35-.55-.12-.19-.23-.38-.33-.58-.2-.36-.38-.74-.55-1.13-.1-.23-.19-.45-.27-.68-.07-.2-.14-.4-.21-.61-.14-.44-.26-.89-.34-1.34-.05-.22-.09-.44-.12-.67-.31-1.99-.18-4.03.4-5.96.05-.15.09-.31.14-.45.13-.4.28-.78.45-1.16.06-.15.13-.29.2-.43.09-.2.19-.4.3-.59.1-.2.21-.39.33-.57.08-.15.17-.29.27-.43.09-.14.18-.27.28-.4.43-.61.92-1.2,1.47-1.75.31-.31.63-.6.97-.88l1.06-.79c.18-.12.36-.24.55-.35.19-.12.38-.23.57-.33.2-.11.39-.21.59-.3.2-.1.4-.19.61-.28.4-.17.82-.32,1.25-.46,1.28-.39,2.65-.61,4.06-.61h54.66c7.55,0,13.67,6.12,13.67,13.66Z"/>
    <path class="cls-12" d="M872.85,15.52h-.33c-1.41,0-2.78.22-4.06.61,1.32-.41,2.69-.62,4.06-.62.11,0,.22,0,.33.01Z"/>
    <rect class="cls-5" x="548.62" y="52.49" width="27.33" height="27.32" rx="13.66" ry="13.66"/>
    <use width="24.96" height="24.69" transform="translate(422.23 18.32) scale(2.53)" xlink:href="#New_Symbol_2"/>
    <path class="cls-36" d="M711.44,75.75l-18.55-12.29c11.22,7.98,18.55,21.09,18.55,35.87h-14c0-16.57-13.43-30-30-30v-14c8.47,0,16.39,2.41,23.11,6.57l-23.11-15.32v-17.21l44,29.16v17.22Z"/>
    <path class="cls-28" d="M1915.55,463.48l-51.79-34.31c31.32,22.28,51.79,58.88,51.79,100.14h-39.08c0-46.26-37.5-83.75-83.75-83.75v-39.08c23.65,0,45.76,6.73,64.52,18.34l-64.52-42.77v-48.05l122.84,81.41v48.07Z"/>
    <path class="cls-3" d="M661.83,157.77l5.61,5.61v10.48l-22.05-22.05h10.93c2.05,0,3.71-1.66,3.71-3.7,0-1.02-.41-1.95-1.09-2.62-.67-.68-1.6-1.09-2.62-1.09h-18.36l-7.35-7.35c.13-.03.27-.04.41-.05.08-.01.16-.01.24-.01h25.06c.47,0,.93.03,1.38.09,4.78.59,8.63,4.22,9.53,8.9.14.69.21,1.4.21,2.13s-.07,1.44-.21,2.13c-.62,3.23-2.64,5.96-5.4,7.53Z"/>
    <g>
      <path class="cls-47" d="M729.55,58.88c1.43.07,2.72.19,3.87.38,1.15.19,2.27.47,3.37.84s2.05.88,2.86,1.5c.8.63,1.51,1.38,2.13,2.25.62.87,1.08,1.93,1.39,3.17.31,1.24.46,2.65.46,4.21h-2.87c0-3.92-1.25-6.87-3.75-8.85s-5.94-3-10.33-3.04c-1.06.15-2.15.29-3.27.4v8.99c0,.84-.27,1.47-.81,1.88-.54.42-1.23.63-2.07.63v-23.13h12.79c3.35,0,5.7.67,7.07,2.02,1.14,1.1,1.21,2.35.2,3.73-1.45,2-4.7,3.58-9.75,4.72-.42.11-.85.21-1.29.3ZM723.4,50.62v8.56c3.13-.31,5.88-.76,8.26-1.35,1.5-.37,2.77-.87,3.82-1.49,1.05-.62,1.79-1.26,2.23-1.93.44-.67.61-1.35.5-2.03-.11-.68-.49-1.29-1.12-1.83-.64-.54-1.6-.98-2.89-1.32-1.29-.34-2.81-.51-4.58-.51h-4.26c-.53,0-.99.19-1.37.56-.39.38-.58.83-.58,1.35Z"/>
      <path class="cls-50" d="M754.4,53.89c.68,0,1.35.06,2.02.17.66.11,1.31.3,1.93.58.63.28,1.17.61,1.64,1.01s.84.9,1.12,1.5.43,1.28.43,2.03v12.06c-.84,0-1.53-.21-2.06-.63-.54-.42-.81-1.05-.81-1.88v-1.69c-.57,1.26-1.48,2.27-2.71,3.04s-2.62,1.16-4.16,1.16c-2.09,0-3.88-.67-5.37-2.02-1.49-1.34-2.23-2.97-2.23-4.87s.74-3.53,2.23-4.87c1.49-1.34,3.28-2.02,5.37-2.02,1.54,0,2.93.39,4.16,1.16s2.14,1.78,2.71,3.04v-3.14c0-2.71-1.42-4.06-4.26-4.06-1.25.02-2.47.3-3.65.84-1.18.54-2.19,1.29-3.02,2.26l-.96-1.32c1.06-.75,2.26-1.33,3.6-1.73,1.34-.41,2.69-.61,4.03-.61ZM755.98,59.31c-1.04-.71-2.1-1.08-3.19-1.12-1.09-.04-2.05.19-2.87.69-.83.51-1.5,1.24-2.03,2.21-.53.97-.79,2.05-.79,3.25s.26,2.29.79,3.25c.53.97,1.2,1.71,2.02,2.21.81.51,1.77.74,2.86.69,1.09-.04,2.15-.41,3.19-1.09,1.17-.79,1.97-1.83,2.4-3.12.43-1.29.43-2.58,0-3.88-.43-1.3-1.22-2.33-2.36-3.11Z"/>
      <path class="cls-33" d="M766.72,64.3v6.94h-2.87v-17.35c.84,0,1.52.21,2.06.63.54.42.81,1.05.81,1.88v4.2c.73-2.64,1.96-4.54,3.7-5.68,2.49-1.59,5.55-1.38,9.18.63l-.96,1.85c-.55-.7-1.27-1.31-2.15-1.8-.88-.5-1.83-.79-2.86-.89s-1.99.14-2.89.71c-1.3.84-2.26,2.05-2.89,3.65-.63,1.6-1.01,3.34-1.14,5.24Z"/>
      <path class="cls-44" d="M782.31,65.75c.37,1.19.95,2.19,1.72,2.99.77.8,1.64,1.33,2.59,1.57.96.24,1.93.28,2.92.12.99-.17,1.95-.62,2.88-1.35.92-.74,1.68-1.7,2.28-2.89h1.62c-.77,1.5-1.97,2.71-3.58,3.65-1.62.94-3.32,1.4-5.1,1.4-2.38,0-4.42-.85-6.11-2.54-1.7-1.7-2.54-3.74-2.54-6.13s.85-4.43,2.54-6.13c1.7-1.7,3.74-2.54,6.13-2.54s4.43.85,6.13,2.54c1.7,1.7,2.54,3.74,2.54,6.15l-14.01,3.17ZM781.88,62.55c0,.93.09,1.81.26,2.64l11.3-2.64c0-2.49-.57-4.43-1.7-5.83-1.13-1.4-2.47-2.12-4.01-2.16-1.59-.02-2.96.67-4.11,2.08s-1.73,3.38-1.73,5.91Z"/>
      <path class="cls-29" d="M801.58,48.11v20.29c0,1.08-.46,1.82-1.39,2.21h10.44c.18,0,.54,0,1.11-.02.56-.01.96-.03,1.21-.05.24-.02.61-.05,1.09-.1.48-.04.88-.1,1.19-.18.31-.08.66-.17,1.06-.26s.77-.22,1.12-.36c.35-.14.69-.3,1.02-.48v2.08h-21.28v-.63h1.55v-22.5h2.88Z"/>
      <path class="cls-8" d="M833.62,60.37v-6.48h2.91v17.35c-.84,0-1.53-.21-2.08-.63-.55-.42-.83-1.05-.83-1.88v-5.52c-.88,3.02-2.39,5.25-4.53,6.71-.88.59-1.89.99-3.04,1.17-1.15.19-2.23.17-3.24-.05-1.01-.22-1.87-.72-2.58-1.49-.71-.77-1.06-1.75-1.06-2.94v-12.65c1.94,0,2.95.78,3.04,2.35v9.98c0,1.41.33,2.49.97,3.24.65.75,1.48,1.1,2.5,1.06,1.01-.04,2.05-.43,3.11-1.16,1.39-.92,2.49-2.2,3.3-3.83.81-1.63,1.32-3.37,1.52-5.22Z"/>
      <path class="cls-46" d="M853.55,71.24c-.07-.33-.21-.67-.43-1.02-.22-.35-.4-.6-.53-.74-.13-.14-.41-.43-.83-.88l-4.53-4.76-3.96,5.06c-.35.44-.62.78-.81,1.01-.19.23-.42.45-.69.64-.28.2-.49.34-.63.41-.14.08-.42.14-.84.2-.42.06-.77.08-1.06.08h-1.49l7.5-9.48-7.5-7.86h1.55c.07.33.21.67.43,1.02.22.35.4.6.53.74.13.14.41.44.83.88l4.53,4.76,3.96-5.06c.35-.44.62-.78.81-1.01.19-.23.42-.45.69-.64.27-.2.48-.34.63-.41s.42-.14.84-.2c.42-.05.77-.08,1.06-.08h1.49l-7.5,9.48,7.5,7.86h-1.55Z"/>
      <path class="cls-41" d="M856.26,68.99c.29-.29.63-.43,1.04-.43s.75.14,1.04.43c.29.29.43.63.43,1.04s-.14.75-.43,1.04c-.29.29-.63.43-1.04.43s-.75-.14-1.04-.43c-.29-.29-.43-.63-.43-1.04s.14-.75.43-1.04Z"/>
      <path class="cls-48" d="M862.24,50.36c.4,0,.73.14,1.01.41.28.28.41.62.41,1.02s-.14.75-.41,1.02c-.28.28-.61.41-1.01.41-.26,0-.51-.07-.73-.2-.22-.13-.4-.31-.53-.53-.13-.22-.2-.46-.2-.71s.07-.5.2-.73c.13-.23.31-.41.53-.53.22-.12.46-.18.73-.18ZM863.66,56.4v14.83h-2.87v-17.35c.84,0,1.52.21,2.06.63.54.42.81,1.05.81,1.88Z"/>
      <path class="cls-10" d="M867.89,56.44c1.7-1.7,3.74-2.54,6.13-2.54s4.43.85,6.13,2.54c1.7,1.7,2.54,3.74,2.54,6.13s-.85,4.43-2.54,6.13c-1.7,1.7-3.74,2.54-6.13,2.54s-4.43-.85-6.13-2.54c-1.7-1.7-2.54-3.74-2.54-6.13s.85-4.43,2.54-6.13ZM869.92,68.28c1.13,1.58,2.5,2.36,4.1,2.36s2.96-.79,4.1-2.36c1.13-1.57,1.7-3.48,1.69-5.72-.01-2.24-.58-4.14-1.7-5.72s-2.48-2.36-4.08-2.36-2.96.79-4.1,2.36c-1.13,1.57-1.7,3.48-1.7,5.72s.57,4.14,1.7,5.72Z"/>
    </g>
    <g>
      <path class="cls-9" d="M2273.04,781.45c1.96.09,3.72.26,5.29.52,1.57.26,3.1.64,4.61,1.15s2.81,1.2,3.91,2.06c1.1.86,2.07,1.88,2.91,3.07.84,1.19,1.48,2.64,1.9,4.34.42,1.7.63,3.62.63,5.76h-3.93c0-5.36-1.71-9.4-5.13-12.11-3.42-2.71-8.13-4.1-14.12-4.16-1.44.21-2.94.39-4.47.54v12.29c0,1.15-.37,2-1.11,2.58-.74.57-1.68.86-2.82.86v-31.63h17.49c4.58,0,7.8.92,9.67,2.76,1.57,1.51,1.66,3.21.27,5.11-1.99,2.74-6.43,4.9-13.33,6.46-.57.15-1.16.29-1.76.41ZM2264.63,770.16v11.7c4.28-.42,8.04-1.04,11.3-1.85,2.05-.51,3.79-1.19,5.22-2.03,1.43-.84,2.45-1.72,3.05-2.64.6-.92.83-1.84.68-2.78-.15-.93-.66-1.77-1.54-2.51-.87-.74-2.19-1.34-3.95-1.81-1.76-.47-3.85-.7-6.26-.7h-5.83c-.72,0-1.35.26-1.87.77-.53.51-.79,1.13-.79,1.85Z"/>
      <path class="cls-38" d="M2307.01,774.63c.93,0,1.85.08,2.76.23.9.15,1.79.41,2.64.79.86.38,1.6.84,2.24,1.38s1.14,1.23,1.54,2.06.59,1.75.59,2.78v16.49c-1.14,0-2.09-.29-2.82-.86-.74-.57-1.11-1.43-1.11-2.58v-2.3c-.78,1.72-2.02,3.1-3.71,4.16s-3.58,1.58-5.69,1.58c-2.86,0-5.31-.92-7.34-2.76-2.03-1.84-3.05-4.06-3.05-6.66s1.02-4.83,3.05-6.66c2.03-1.84,4.48-2.76,7.34-2.76,2.11,0,4.01.53,5.69,1.58s2.92,2.44,3.71,4.16v-4.29c0-3.71-1.94-5.56-5.83-5.56-1.72.03-3.38.41-4.99,1.15-1.61.74-2.99,1.77-4.13,3.09l-1.31-1.81c1.45-1.02,3.09-1.81,4.93-2.37,1.84-.56,3.67-.84,5.51-.84ZM2309.18,782.04c-1.42-.96-2.87-1.48-4.36-1.54-1.49-.06-2.8.26-3.93.95-1.13.69-2.06,1.7-2.78,3.03-.72,1.33-1.08,2.81-1.08,4.45s.36,3.12,1.08,4.45c.72,1.33,1.64,2.33,2.76,3.03,1.11.69,2.42,1.01,3.91.95,1.49-.06,2.94-.56,4.36-1.49,1.6-1.08,2.69-2.51,3.28-4.27.59-1.76.59-3.53,0-5.31-.59-1.78-1.66-3.19-3.23-4.25Z"/>
      <path class="cls-45" d="M2323.87,788.86v9.49h-3.93v-23.72c1.14,0,2.08.29,2.82.86.74.57,1.11,1.43,1.11,2.58v5.74c.99-3.62,2.68-6.21,5.06-7.77,3.4-2.17,7.59-1.88,12.56.86l-1.31,2.53c-.75-.96-1.73-1.78-2.94-2.46-1.21-.68-2.51-1.08-3.91-1.22s-2.72.19-3.95.97c-1.78,1.15-3.1,2.81-3.95,4.99-.86,2.18-1.38,4.57-1.56,7.16Z"/>
      <path class="cls-2" d="M2345.19,790.85c.51,1.63,1.29,2.99,2.35,4.09,1.05,1.1,2.24,1.81,3.55,2.15,1.31.33,2.64.38,4,.16,1.36-.23,2.67-.84,3.93-1.85,1.26-1.01,2.3-2.33,3.12-3.95h2.21c-1.06,2.05-2.69,3.71-4.9,4.99-2.21,1.28-4.54,1.92-6.98,1.92-3.25,0-6.04-1.16-8.36-3.48-2.32-2.32-3.48-5.11-3.48-8.38s1.16-6.06,3.48-8.38c2.32-2.32,5.11-3.48,8.38-3.48s6.06,1.16,8.38,3.48c2.32,2.32,3.48,5.12,3.48,8.4l-19.16,4.34ZM2344.6,786.47c0,1.27.12,2.47.36,3.61l15.45-3.61c0-3.4-.78-6.06-2.33-7.97-1.55-1.91-3.38-2.9-5.49-2.96-2.17-.03-4.04.92-5.62,2.85-1.58,1.93-2.37,4.62-2.37,8.09Z"/>
      <path class="cls-24" d="M2371.53,766.72v27.74c0,1.48-.63,2.48-1.9,3.03h14.28c.24,0,.75,0,1.51-.02.77-.02,1.32-.04,1.65-.07.33-.03.83-.07,1.49-.14.66-.06,1.2-.14,1.63-.25.42-.11.9-.23,1.45-.36s1.05-.3,1.54-.5c.48-.2.95-.41,1.4-.66v2.85h-29.1v-.86h2.12v-30.77h3.93Z"/>
      <path class="cls-40" d="M2415.36,783.49v-8.86h3.98v23.72c-1.15,0-2.09-.29-2.85-.86-.75-.57-1.13-1.43-1.13-2.58v-7.55c-1.2,4.13-3.27,7.18-6.19,9.17-1.2.81-2.59,1.35-4.16,1.6-1.57.26-3.04.23-4.43-.07-1.39-.3-2.56-.98-3.52-2.03-.96-1.05-1.45-2.39-1.45-4.02v-17.3c2.65,0,4.04,1.07,4.16,3.21v13.65c0,1.93.44,3.4,1.33,4.43.89,1.02,2.03,1.51,3.41,1.45,1.38-.06,2.8-.59,4.25-1.58,1.9-1.26,3.4-3.01,4.52-5.24,1.11-2.23,1.81-4.61,2.08-7.14Z"/>
      <path class="cls-18" d="M2442.6,798.35c-.09-.45-.29-.92-.59-1.4-.3-.48-.54-.82-.72-1.02-.18-.2-.56-.59-1.13-1.2l-6.19-6.51-5.42,6.91c-.48.6-.85,1.06-1.11,1.38-.26.32-.57.61-.95.88-.38.27-.66.46-.86.56-.2.11-.58.2-1.15.27-.57.08-1.06.11-1.45.11h-2.03l10.26-12.97-10.26-10.75h2.12c.09.45.29.92.59,1.4.3.48.54.82.72,1.02.18.2.56.59,1.13,1.2l6.19,6.51,5.42-6.91c.48-.6.85-1.06,1.11-1.38.26-.32.57-.61.95-.88.38-.27.66-.46.86-.56s.58-.2,1.15-.27c.57-.07,1.05-.11,1.45-.11h2.03l-10.26,12.97,10.26,10.75h-2.12Z"/>
      <path class="cls-19" d="M2446.31,795.28c.39-.39.87-.59,1.42-.59s1.03.2,1.42.59c.39.39.59.87.59,1.42s-.2,1.03-.59,1.42c-.39.39-.87.59-1.42.59s-1.03-.2-1.42-.59c-.39-.39-.59-.87-.59-1.42s.2-1.03.59-1.42Z"/>
      <path class="cls-26" d="M2454.48,769.79c.54,0,1,.19,1.38.56.38.38.56.84.56,1.4s-.19,1.02-.56,1.4c-.38.38-.84.56-1.38.56-.36,0-.69-.09-.99-.27-.3-.18-.54-.42-.72-.72-.18-.3-.27-.62-.27-.97s.09-.68.27-.99c.18-.32.42-.56.72-.72.3-.16.63-.25.99-.25ZM2456.43,778.06v20.29h-3.93v-23.72c1.14,0,2.08.29,2.82.86.74.57,1.11,1.43,1.11,2.58Z"/>
      <path class="cls-17" d="M2462.21,778.11c2.32-2.32,5.11-3.48,8.38-3.48s6.06,1.16,8.38,3.48c2.32,2.32,3.48,5.11,3.48,8.38s-1.16,6.06-3.48,8.38c-2.32,2.32-5.11,3.48-8.38,3.48s-6.06-1.16-8.38-3.48c-2.32-2.32-3.48-5.11-3.48-8.38s1.16-6.06,3.48-8.38ZM2464.99,794.31c1.55,2.15,3.42,3.23,5.6,3.23s4.05-1.08,5.6-3.23c1.55-2.15,2.32-4.76,2.3-7.82-.02-3.06-.79-5.66-2.33-7.82-1.54-2.15-3.4-3.23-5.58-3.23s-4.05,1.08-5.6,3.23c-1.55,2.15-2.33,4.76-2.33,7.82s.78,5.66,2.33,7.82Z"/>
    </g>
    <path class="cls-51" d="M1762.63,792l-18.55-12.29c11.22,7.98,18.55,21.09,18.55,35.87h-14c0-16.57-13.43-30-30-30v-14c8.47,0,16.39,2.41,23.11,6.57l-23.11-15.32v-17.21l44,29.16v17.22Z"/>
    <g>
      <path class="cls-34" d="M1777.96,788.14c1.89.09,3.58.25,5.09.5,1.51.25,2.99.62,4.44,1.11s2.7,1.15,3.76,1.98c1.06.83,1.99,1.81,2.81,2.96.81,1.15,1.42,2.54,1.83,4.18.41,1.64.61,3.49.61,5.55h-3.79c0-5.16-1.65-9.05-4.94-11.66-3.29-2.61-7.83-3.95-13.6-4-1.39.2-2.83.38-4.31.52v11.84c0,1.1-.36,1.93-1.07,2.48-.71.55-1.62.83-2.72.83v-30.46h16.84c4.41,0,7.51.89,9.31,2.65,1.51,1.45,1.59,3.09.26,4.92-1.92,2.64-6.19,4.71-12.84,6.22-.55.15-1.12.28-1.7.39ZM1769.87,777.26v11.27c4.12-.41,7.75-1,10.88-1.78,1.97-.49,3.65-1.15,5.03-1.96,1.38-.81,2.36-1.66,2.94-2.55.58-.88.8-1.78.65-2.68-.15-.9-.64-1.7-1.48-2.42-.84-.71-2.11-1.29-3.81-1.74-1.7-.45-3.71-.67-6.03-.67h-5.61c-.7,0-1.3.25-1.81.74-.51.49-.76,1.09-.76,1.78Z"/>
      <path class="cls-20" d="M1810.69,781.57c.9,0,1.78.07,2.65.22.87.15,1.72.4,2.55.76.83.36,1.54.81,2.15,1.33s1.1,1.18,1.48,1.98.57,1.69.57,2.68v15.88c-1.1,0-2.01-.28-2.72-.83-.71-.55-1.07-1.38-1.07-2.48v-2.22c-.76,1.65-1.94,2.99-3.57,4s-3.45,1.52-5.48,1.52c-2.76,0-5.11-.88-7.07-2.65-1.96-1.77-2.94-3.91-2.94-6.42s.98-4.65,2.94-6.42c1.96-1.77,4.31-2.65,7.07-2.65,2.03,0,3.86.51,5.48,1.52s2.81,2.35,3.57,4v-4.13c0-3.57-1.87-5.35-5.61-5.35-1.65.03-3.26.4-4.81,1.11-1.55.71-2.88,1.7-3.98,2.98l-1.26-1.74c1.39-.99,2.97-1.75,4.74-2.29,1.77-.54,3.54-.8,5.31-.8ZM1812.78,788.7c-1.36-.93-2.76-1.42-4.2-1.48-1.44-.06-2.7.25-3.79.91-1.09.67-1.98,1.64-2.68,2.92-.7,1.28-1.04,2.71-1.04,4.29s.35,3.01,1.04,4.29c.7,1.28,1.58,2.25,2.65,2.92,1.07.67,2.33.97,3.76.91,1.44-.06,2.83-.54,4.2-1.44,1.54-1.04,2.59-2.41,3.16-4.11.57-1.7.57-3.4,0-5.11-.56-1.71-1.6-3.07-3.11-4.09Z"/>
      <path class="cls-32" d="M1826.92,795.27v9.14h-3.79v-22.85c1.1,0,2.01.28,2.72.83.71.55,1.07,1.38,1.07,2.48v5.53c.96-3.48,2.58-5.98,4.87-7.49,3.28-2.09,7.31-1.81,12.1.83l-1.26,2.44c-.73-.93-1.67-1.72-2.83-2.37-1.16-.65-2.42-1.04-3.76-1.17s-2.62.18-3.81.94c-1.71,1.1-2.98,2.71-3.81,4.81-.83,2.1-1.33,4.4-1.5,6.9Z"/>
      <path class="cls-15" d="M1847.46,797.19c.49,1.57,1.25,2.88,2.26,3.94,1.01,1.06,2.15,1.75,3.42,2.07,1.26.32,2.55.37,3.85.15,1.31-.22,2.57-.81,3.79-1.78,1.22-.97,2.22-2.24,3-3.81h2.13c-1.02,1.97-2.59,3.58-4.72,4.81-2.13,1.23-4.37,1.85-6.72,1.85-3.13,0-5.82-1.12-8.05-3.35-2.23-2.23-3.35-4.92-3.35-8.07s1.12-5.84,3.35-8.07c2.23-2.23,4.92-3.35,8.07-3.35s5.84,1.12,8.07,3.35c2.23,2.23,3.35,4.93,3.35,8.09l-18.45,4.18ZM1846.89,792.97c0,1.22.12,2.38.35,3.48l14.88-3.48c0-3.28-.75-5.84-2.24-7.68-1.49-1.84-3.26-2.79-5.29-2.85-2.09-.03-3.89.88-5.42,2.74s-2.28,4.45-2.28,7.79Z"/>
      <path class="cls-43" d="M1872.83,773.95v26.72c0,1.42-.61,2.39-1.83,2.92h13.75c.23,0,.72,0,1.46-.02.74-.01,1.27-.04,1.59-.07.32-.03.8-.07,1.44-.13.64-.06,1.16-.14,1.57-.24.41-.1.87-.22,1.39-.35s1.01-.29,1.48-.48c.46-.19.91-.4,1.35-.63v2.74h-28.03v-.83h2.05v-29.63h3.79Z"/>
      <path class="cls-16" d="M1915.04,790.09v-8.53h3.83v22.85c-1.1,0-2.02-.28-2.74-.83-.73-.55-1.09-1.38-1.09-2.48v-7.27c-1.16,3.98-3.15,6.92-5.96,8.83-1.16.78-2.5,1.3-4,1.55-1.51.25-2.93.22-4.27-.07-1.34-.29-2.47-.94-3.39-1.96-.93-1.01-1.39-2.31-1.39-3.87v-16.67c2.55,0,3.89,1.03,4,3.09v13.14c0,1.86.43,3.28,1.28,4.26.86.99,1.95,1.45,3.29,1.39,1.33-.06,2.7-.57,4.09-1.52,1.83-1.22,3.28-2.9,4.35-5.05,1.07-2.15,1.74-4.44,2-6.88Z"/>
      <path class="cls-1" d="M1941.28,804.41c-.09-.44-.28-.88-.57-1.35-.29-.46-.52-.79-.7-.98-.17-.19-.54-.57-1.09-1.15l-5.96-6.27-5.22,6.66c-.46.58-.82,1.02-1.07,1.33-.25.3-.55.59-.91.85-.36.26-.64.44-.83.54-.19.1-.56.19-1.11.26-.55.07-1.02.11-1.39.11h-1.96l9.88-12.49-9.88-10.36h2.05c.09.43.28.88.57,1.35.29.46.52.79.7.98.17.19.54.57,1.09,1.15l5.96,6.27,5.22-6.66c.46-.58.82-1.02,1.07-1.33.25-.3.55-.59.91-.85.36-.26.64-.44.83-.54s.56-.19,1.11-.26c.55-.07,1.01-.11,1.39-.11h1.96l-9.88,12.49,9.88,10.36h-2.05Z"/>
      <path class="cls-37" d="M1944.85,801.45c.38-.38.83-.57,1.37-.57s.99.19,1.37.57c.38.38.57.83.57,1.37s-.19.99-.57,1.37c-.38.38-.83.57-1.37.57s-.99-.19-1.37-.57c-.38-.38-.57-.83-.57-1.37s.19-.99.57-1.37Z"/>
      <path class="cls-25" d="M1952.72,776.91c.52,0,.96.18,1.33.54.36.36.54.81.54,1.35s-.18.99-.54,1.35c-.36.36-.81.54-1.33.54-.35,0-.67-.09-.96-.26-.29-.17-.52-.41-.7-.7-.17-.29-.26-.6-.26-.94s.09-.65.26-.96c.17-.3.41-.54.7-.7.29-.16.61-.24.96-.24ZM1954.59,784.87v19.54h-3.79v-22.85c1.1,0,2.01.28,2.72.83.71.55,1.07,1.38,1.07,2.48Z"/>
      <path class="cls-22" d="M1960.17,784.92c2.23-2.23,4.92-3.35,8.07-3.35s5.84,1.12,8.07,3.35c2.23,2.23,3.35,4.93,3.35,8.07s-1.12,5.84-3.35,8.07c-2.23,2.23-4.93,3.35-8.07,3.35s-5.84-1.12-8.07-3.35c-2.23-2.23-3.35-4.92-3.35-8.07s1.12-5.84,3.35-8.07ZM1962.84,800.52c1.49,2.07,3.29,3.11,5.4,3.11s3.9-1.04,5.4-3.11c1.49-2.07,2.23-4.58,2.22-7.53-.02-2.94-.76-5.45-2.24-7.53s-3.27-3.11-5.37-3.11-3.9,1.04-5.4,3.11c-1.49,2.07-2.24,4.58-2.24,7.53s.75,5.45,2.24,7.53Z"/>
    </g>
    <path class="cls-31" d="M949.63,21.44c-24.69,0-44.71,20.02-44.71,44.71s20.02,44.71,44.71,44.71,44.7-20.02,44.7-44.71-20.01-44.71-44.7-44.71ZM973.09,76.76l-18.55-12.29c11.22,7.98,18.55,21.09,18.55,35.87h-14c0-16.57-13.43-30-30-30v-14c8.47,0,16.39,2.41,23.11,6.57l-23.11-15.32v-17.21l44,29.16v17.22Z"/>
    <path class="cls-14" d="M1758.16,572.79c-37.77,0-68.4,30.63-68.4,68.4s30.63,68.4,68.4,68.4,68.39-30.63,68.39-68.4-30.61-68.4-68.39-68.4ZM1794.05,657.42l-28.38-18.8c17.17,12.21,28.38,32.27,28.38,54.88h-21.42c0-25.35-20.55-45.9-45.9-45.9v-21.42c12.96,0,25.07,3.69,35.36,10.05l-35.36-23.44v-26.33l67.31,44.61v26.34Z"/>
    <path class="cls-5" d="M661.83,157.77l5.61,5.61v10.48l-22.05-22.05h10.93c2.05,0,3.71-1.66,3.71-3.7,0-1.02-.41-1.95-1.09-2.62-.67-.68-1.6-1.09-2.62-1.09h-18.36l-7.35-7.35c.13-.03.27-.04.41-.05.08-.01.16-.01.24-.01h25.06c.47,0,.93.03,1.38.09,4.78.59,8.63,4.22,9.53,8.9.14.69.21,1.4.21,2.13s-.07,1.44-.21,2.13c-.62,3.23-2.64,5.96-5.4,7.53Z"/>
    <path class="cls-21" d="M563.4,123.69l-21.93,12.67c-2.29,1.32-3.7,3.76-3.7,6.4v25.33c0,2.64,1.41,5.08,3.7,6.4l21.93,12.67c2.29,1.32,5.11,1.32,7.4,0l21.94-12.67c2.29-1.32,3.7-3.76,3.7-6.4v-25.33c0-2.64-1.41-5.08-3.7-6.4l-21.94-12.67c-2.29-1.32-5.11-1.32-7.4,0ZM583.54,167.32v10.48l-22.05-22.05h10.93c2.05,0,3.71-1.66,3.71-3.7,0-1.02-.41-1.95-1.09-2.62-.67-.68-1.6-1.09-2.62-1.09h-18.36l-7.35-7.35c.13-.03.27-.04.41-.05.08-.01.16-.01.24-.01h25.06c.47,0,.93.03,1.38.09,4.78.59,8.63,4.22,9.53,8.9.14.69.21,1.4.21,2.13s-.07,1.44-.21,2.13c-.62,3.23-2.64,5.96-5.4,7.53l5.61,5.61Z"/>
    <path class="cls-30" d="M2263.66,561.22l-46.67,26.95c-4.87,2.81-7.86,8-7.86,13.62v53.89c0,5.62,3,10.81,7.86,13.62l46.67,26.95c4.87,2.81,10.87,2.81,15.74,0l46.68-26.95c4.87-2.81,7.87-8,7.87-13.63v-53.89c0-5.62-3-10.82-7.87-13.63l-46.68-26.95c-4.87-2.81-10.87-2.81-15.74,0ZM2306.5,654.05v22.3l-46.91-46.91h23.25c4.36,0,7.89-3.53,7.89-7.87,0-2.17-.87-4.15-2.32-5.57-1.43-1.45-3.4-2.32-5.57-2.32h-39.06l-15.64-15.64c.28-.06.57-.09.87-.11.17-.02.34-.02.51-.02h53.31c1,0,1.98.06,2.94.19,10.17,1.26,18.36,8.98,20.27,18.93.3,1.47.45,2.98.45,4.53s-.15,3.06-.45,4.53c-1.32,6.87-5.62,12.68-11.49,16.02l11.94,11.94Z"/>
    <path class="cls-5" d="M661.83,157.77l5.61,5.61v10.48l-22.05-22.05h10.93c2.05,0,3.71-1.66,3.71-3.7,0-1.02-.41-1.95-1.09-2.62-.67-.68-1.6-1.09-2.62-1.09h-18.36l-7.35-7.35c.13-.03.27-.04.41-.05.08-.01.16-.01.24-.01h25.06c.47,0,.93.03,1.38.09,4.78.59,8.63,4.22,9.53,8.9.14.69.21,1.4.21,2.13s-.07,1.44-.21,2.13c-.62,3.23-2.64,5.96-5.4,7.53Z"/>
    <path class="cls-5" d="M482.58,119.81c-19.67,0-35.61,15.95-35.61,35.62s15.94,35.61,35.61,35.61,35.61-15.95,35.61-35.61-15.94-35.62-35.61-35.62ZM482.41,189.3l-29.33-16.94v-33.87l29.33-16.94,29.34,16.94v33.87l-29.34,16.94Z"/>
    <path class="cls-49" d="M416.28,163.6l5.61,5.61v10.48l-22.05-22.05h10.93c2.05,0,3.71-1.66,3.71-3.7,0-1.02-.41-1.95-1.09-2.62-.67-.68-1.6-1.09-2.62-1.09h-18.36l-7.35-7.35c.13-.03.27-.04.41-.05.08-.01.16-.01.24-.01h25.06c.47,0,.93.03,1.38.09,4.78.59,8.63,4.22,9.53,8.9.14.69.21,1.4.21,2.13s-.07,1.44-.21,2.13c-.62,3.23-2.64,5.96-5.4,7.53Z"/>
    <path class="cls-13" d="M2330.23,449.79l24.74,24.74v46.21l-97.23-97.23h48.2c9.04,0,16.36-7.32,16.36-16.32,0-4.5-1.81-8.6-4.81-11.55-2.95-3-7.06-4.81-11.55-4.81h-80.96l-32.41-32.41c.57-.13,1.19-.18,1.81-.22.35-.04.71-.04,1.06-.04h110.51c2.07,0,4.1.13,6.09.4,21.08,2.6,38.06,18.61,42.02,39.25.62,3.04.93,6.17.93,9.39s-.31,6.35-.93,9.39c-2.73,14.24-11.64,26.28-23.81,33.2Z"/>
    <path class="cls-6" d="M2246.42,785.61l6.7,6.69v12.51l-26.34-26.31h13.06c2.45,0,4.43-1.98,4.43-4.42,0-1.22-.49-2.33-1.3-3.13-.8-.81-1.91-1.3-3.13-1.3h-21.93l-8.78-8.77c.16-.04.32-.05.49-.06.1-.01.19-.01.29-.01h29.94c.56,0,1.11.04,1.65.11,5.71.7,10.31,5.04,11.39,10.62.17.82.25,1.67.25,2.54s-.08,1.72-.25,2.54c-.74,3.85-3.15,7.11-6.45,8.99Z"/>
    <path class="cls-27" d="M1060.5,20.42c-24.26,0-43.94,19.66-43.94,43.93s19.68,43.94,43.94,43.94,43.94-19.66,43.94-43.94-19.68-43.93-43.94-43.93ZM1081.49,82.6v14.44l-30.38-30.38h15.06c2.82,0,5.11-2.29,5.11-5.1,0-1.41-.56-2.69-1.5-3.61-.92-.94-2.2-1.5-3.61-1.5h-25.3l-10.13-10.13c.18-.04.37-.06.56-.07.11-.01.22-.01.33-.01h34.53c.65,0,1.28.04,1.9.12,6.59.81,11.89,5.81,13.13,12.26.19.95.29,1.93.29,2.93s-.1,1.98-.29,2.93c-.85,4.45-3.64,8.21-7.44,10.38l7.73,7.73Z"/>
    <path class="cls-39" d="M2443.46,555.56c-40.42,0-73.2,32.75-73.2,73.17s32.78,73.2,73.2,73.2,73.2-32.75,73.2-73.2-32.78-73.17-73.2-73.17ZM2478.44,659.14v24.05l-50.61-50.61h25.09c4.71,0,8.52-3.81,8.52-8.49,0-2.34-.94-4.48-2.5-6.01-1.54-1.56-3.67-2.5-6.01-2.5h-42.14l-16.87-16.87c.3-.07.62-.09.94-.11.18-.02.37-.02.55-.02h57.52c1.08,0,2.13.07,3.17.21,10.97,1.35,19.81,9.69,21.87,20.43.32,1.58.48,3.21.48,4.89s-.16,3.31-.48,4.89c-1.42,7.41-6.06,13.68-12.39,17.28l12.88,12.88Z"/>
    <path class="cls-35" d="M1166.73,31.06l-27.15,15.68c-2.83,1.64-4.58,4.66-4.58,7.93v31.36c0,3.27,1.74,6.29,4.58,7.93l27.15,15.68c2.83,1.64,6.32,1.64,9.16,0l27.16-15.68c2.83-1.64,4.58-4.66,4.58-7.93v-31.35c0-3.27-1.74-6.29-4.58-7.93l-27.16-15.68c-2.83-1.64-6.32-1.64-9.16,0ZM1191.65,85.07v12.97l-27.29-27.29h13.53c2.54,0,4.59-2.05,4.59-4.58,0-1.26-.51-2.41-1.35-3.24-.83-.84-1.98-1.35-3.24-1.35h-22.73l-9.1-9.1c.16-.04.33-.05.51-.06.1-.01.2-.01.3-.01h31.02c.58,0,1.15.04,1.71.11,5.92.73,10.68,5.22,11.8,11.02.17.85.26,1.73.26,2.64s-.09,1.78-.26,2.64c-.77,4-3.27,7.38-6.68,9.32l6.94,6.94Z"/>
    <path class="cls-42" d="M133.42,143.33l-33.58-22.25c20.31,14.45,33.58,38.19,33.58,64.95h-25.35c0-30-24.31-54.32-54.31-54.32v-25.35c15.33,0,29.67,4.37,41.84,11.9l-41.84-27.74v-31.16l79.66,52.8v31.17Z"/>
    <path class="cls-7" d="M82.7,20.91L10.89,62.37c-6.74,3.89-10.89,11.08-10.89,18.87v82.91c0,7.78,4.15,14.98,10.89,18.87l71.8,41.45c6.74,3.89,15.05,3.89,21.79,0l71.8-41.45c6.74-3.89,10.89-11.08,10.89-18.87v-82.91c0-7.78-4.15-14.98-10.89-18.87L104.48,20.91c-6.74-3.89-15.05-3.89-21.79,0ZM133.42,143.33l-33.58-22.25c20.31,14.45,33.58,38.19,33.58,64.95h-25.35c0-30-24.31-54.32-54.31-54.32v-25.35c15.33,0,29.67,4.37,41.84,11.9l-41.84-27.74v-31.16l79.66,52.8v31.17Z"/>
    <path class="cls-42" d="M1952.32,660.99l-23.94-15.86c14.48,10.3,23.94,27.22,23.94,46.3h-18.07c0-21.38-17.33-38.72-38.71-38.72v-18.07c10.93,0,21.15,3.11,29.82,8.48l-29.82-19.77v-22.21l56.78,37.64v22.22Z"/>
    <path class="cls-23" d="M1916.16,573.73l-51.18,29.55c-4.8,2.77-7.76,7.9-7.76,13.45v59.1c0,5.55,2.96,10.68,7.77,13.45l51.18,29.55c4.8,2.77,10.72,2.77,15.53,0l51.18-29.55c4.81-2.77,7.77-7.9,7.77-13.45v-59.1c0-5.55-2.96-10.67-7.76-13.45l-51.18-29.55c-4.81-2.77-10.73-2.77-15.53,0ZM1952.32,660.99l-23.94-15.86c14.48,10.3,23.94,27.22,23.94,46.3h-18.07c0-21.38-17.33-38.72-38.71-38.72v-18.07c10.93,0,21.15,3.11,29.82,8.48l-29.82-19.77v-22.21l56.78,37.64v22.22Z"/>
    <rect class="cls-4" x="774.91" y="588.55" width="127.06" height="32"/>
    <g>
      <rect class="cls-52" x="445.95" y="450.94" width="124.71" height="124.71"/>
      <line class="cls-52" x1="445.95" y1="571.62" x2="570.66" y2="571.62"/>
      <line class="cls-52" x1="445.95" y1="567.6" x2="570.66" y2="567.6"/>
      <line class="cls-52" x1="445.95" y1="563.58" x2="570.66" y2="563.58"/>
      <line class="cls-52" x1="445.95" y1="559.55" x2="570.66" y2="559.55"/>
      <line class="cls-52" x1="445.95" y1="555.53" x2="570.66" y2="555.53"/>
      <line class="cls-52" x1="445.95" y1="551.51" x2="570.66" y2="551.51"/>
      <line class="cls-52" x1="445.95" y1="547.49" x2="570.66" y2="547.49"/>
      <line class="cls-52" x1="445.95" y1="543.46" x2="570.66" y2="543.46"/>
      <line class="cls-52" x1="445.95" y1="539.44" x2="570.66" y2="539.44"/>
      <line class="cls-52" x1="445.95" y1="535.42" x2="570.66" y2="535.42"/>
      <line class="cls-52" x1="445.95" y1="531.39" x2="570.66" y2="531.39"/>
      <line class="cls-52" x1="445.95" y1="527.37" x2="570.66" y2="527.37"/>
      <line class="cls-52" x1="445.95" y1="523.35" x2="570.66" y2="523.35"/>
      <line class="cls-52" x1="445.95" y1="519.33" x2="570.66" y2="519.33"/>
      <line class="cls-52" x1="445.95" y1="515.3" x2="570.66" y2="515.3"/>
      <line class="cls-52" x1="445.95" y1="511.28" x2="570.66" y2="511.28"/>
      <line class="cls-52" x1="445.95" y1="507.26" x2="570.66" y2="507.26"/>
      <line class="cls-52" x1="445.95" y1="503.23" x2="570.66" y2="503.23"/>
      <line class="cls-52" x1="445.95" y1="499.21" x2="570.66" y2="499.21"/>
      <line class="cls-52" x1="445.95" y1="495.19" x2="570.66" y2="495.19"/>
      <line class="cls-52" x1="445.95" y1="491.17" x2="570.66" y2="491.17"/>
      <line class="cls-52" x1="445.95" y1="487.14" x2="570.66" y2="487.14"/>
      <line class="cls-52" x1="445.95" y1="483.12" x2="570.66" y2="483.12"/>
      <line class="cls-52" x1="445.95" y1="479.1" x2="570.66" y2="479.1"/>
      <line class="cls-52" x1="445.95" y1="475.08" x2="570.66" y2="475.08"/>
      <line class="cls-52" x1="445.95" y1="471.05" x2="570.66" y2="471.05"/>
      <line class="cls-52" x1="445.95" y1="467.03" x2="570.66" y2="467.03"/>
      <line class="cls-52" x1="445.95" y1="463.01" x2="570.66" y2="463.01"/>
      <line class="cls-52" x1="445.95" y1="458.98" x2="570.66" y2="458.98"/>
      <line class="cls-52" x1="445.95" y1="454.96" x2="570.66" y2="454.96"/>
      <line class="cls-52" x1="566.63" y1="450.94" x2="566.63" y2="575.64"/>
      <line class="cls-52" x1="562.61" y1="450.94" x2="562.61" y2="575.64"/>
      <line class="cls-52" x1="558.59" y1="450.94" x2="558.59" y2="575.64"/>
      <line class="cls-52" x1="554.57" y1="450.94" x2="554.57" y2="575.64"/>
      <line class="cls-52" x1="550.54" y1="450.94" x2="550.54" y2="575.64"/>
      <line class="cls-52" x1="546.52" y1="450.94" x2="546.52" y2="575.64"/>
      <line class="cls-52" x1="542.5" y1="450.94" x2="542.5" y2="575.64"/>
      <line class="cls-52" x1="538.48" y1="450.94" x2="538.48" y2="575.64"/>
      <line class="cls-52" x1="534.45" y1="450.94" x2="534.45" y2="575.64"/>
      <line class="cls-52" x1="530.43" y1="450.94" x2="530.43" y2="575.64"/>
      <line class="cls-52" x1="526.41" y1="450.94" x2="526.41" y2="575.64"/>
      <line class="cls-52" x1="522.38" y1="450.94" x2="522.38" y2="575.64"/>
      <line class="cls-52" x1="518.36" y1="450.94" x2="518.36" y2="575.64"/>
      <line class="cls-52" x1="514.34" y1="450.94" x2="514.34" y2="575.64"/>
      <line class="cls-52" x1="510.32" y1="450.94" x2="510.32" y2="575.64"/>
      <line class="cls-52" x1="506.29" y1="450.94" x2="506.29" y2="575.64"/>
      <line class="cls-52" x1="502.27" y1="450.94" x2="502.27" y2="575.64"/>
      <line class="cls-52" x1="498.25" y1="450.94" x2="498.25" y2="575.64"/>
      <line class="cls-52" x1="494.23" y1="450.94" x2="494.23" y2="575.64"/>
      <line class="cls-52" x1="490.2" y1="450.94" x2="490.2" y2="575.64"/>
      <line class="cls-52" x1="486.18" y1="450.94" x2="486.18" y2="575.64"/>
      <line class="cls-52" x1="482.16" y1="450.94" x2="482.16" y2="575.64"/>
      <line class="cls-52" x1="478.13" y1="450.94" x2="478.13" y2="575.64"/>
      <line class="cls-52" x1="474.11" y1="450.94" x2="474.11" y2="575.64"/>
      <line class="cls-52" x1="470.09" y1="450.94" x2="470.09" y2="575.64"/>
      <line class="cls-52" x1="466.07" y1="450.94" x2="466.07" y2="575.64"/>
      <line class="cls-52" x1="462.04" y1="450.94" x2="462.04" y2="575.64"/>
      <line class="cls-52" x1="458.02" y1="450.94" x2="458.02" y2="575.64"/>
      <line class="cls-52" x1="454" y1="450.94" x2="454" y2="575.64"/>
      <line class="cls-52" x1="449.97" y1="450.94" x2="449.97" y2="575.64"/>
    </g>
  </g>
  <g id="Layer_3" data-name="Layer 3">
    <g id="Layer_1-2" data-name="Layer 1">
      <g>
        <path class="cls-11" d="M966.8,1258.39c-1.16-1.01-2.36-1.97-3.58-2.91-2.04-1.55-4.17-3-6.37-4.34-.5-.3-1.01-.6-1.52-.9-1.02-.58-2.06-1.15-3.11-1.69-1.05-.53-2.12-1.05-3.2-1.54s-2.17-.95-3.28-1.39c-1.11-.43-2.23-.84-3.37-1.23-3.22-1.09-6.55-1.97-9.95-2.6-1.09-.2-2.2-.38-3.31-.54-3.34-.46-6.74-.7-10.21-.7s-6.87.24-10.21.7c-1.11.16-2.22.34-3.31.54-3.4.63-6.73,1.51-9.95,2.6-1.14.39-2.26.8-3.37,1.23-1.11.44-2.2.9-3.28,1.39s-2.15,1.01-3.2,1.54c-1.05.54-2.09,1.11-3.11,1.69-.51.3-1.02.6-1.52.9-2.21,1.34-4.33,2.79-6.37,4.34-1.22.94-2.42,1.9-3.58,2.91-15.5,13.42-25.3,33.24-25.3,55.34s9.8,41.93,25.3,55.35c1.16,1,2.36,1.97,3.58,2.91,2.04,1.55,4.16,3,6.37,4.34.5.3,1.01.6,1.52.9,1.02.58,2.06,1.15,3.11,1.69,1.05.53,2.12,1.05,3.2,1.54,2.16.97,4.38,1.85,6.65,2.62.92.31,1.85.6,2.79.88.46.13.93.27,1.41.4,2.3.63,4.65,1.15,7.03,1.55.99.17,2,.31,3.01.44.76.09,1.51.18,2.27.25.77.07,1.53.13,2.3.18.52.03,1.03.06,1.55.08,1.03.04,2.07.06,3.11.06s2.08-.02,3.11-.06c.52-.02,1.03-.05,1.55-.08.77-.05,1.53-.11,2.3-.18.76-.07,1.51-.16,2.27-.25,1.01-.13,2.02-.27,3.01-.44,2.38-.4,4.73-.92,7.03-1.55.48-.13.95-.27,1.41-.4.94-.28,1.87-.57,2.79-.88,2.27-.77,4.49-1.65,6.65-2.62,1.08-.49,2.15-1.01,3.2-1.54,1.05-.54,2.09-1.11,3.11-1.69.51-.3,1.02-.6,1.52-.9,2.2-1.34,4.33-2.79,6.37-4.34,1.22-.94,2.42-1.91,3.58-2.91,15.49-13.42,25.29-33.23,25.29-55.35s-9.8-41.92-25.29-55.34ZM953.88,1344.14v24.05l-50.61-50.61h25.08c4.71,0,8.52-3.81,8.52-8.49,0-2.34-.94-4.48-2.5-6.01-1.54-1.57-3.68-2.51-6.02-2.51h-42.14l-16.87-16.87c.3-.07.62-.09.94-.11.19-.02.37-.02.55-.02h57.52c1.08,0,2.14.06,3.17.2,10.97,1.36,19.81,9.69,21.88,20.43.32,1.58.48,3.21.48,4.89s-.16,3.3-.48,4.89c-1.43,7.41-6.06,13.68-12.4,17.28l12.88,12.88Z"/>
        <path class="cls-42" d="M941,1331.26l12.88,12.88v24.05l-50.61-50.61h25.08c4.71,0,8.52-3.81,8.52-8.49,0-2.34-.94-4.48-2.5-6.01-1.54-1.57-3.68-2.51-6.02-2.51h-42.14l-16.87-16.87c.3-.07.62-.09.94-.11.19-.02.37-.02.55-.02h57.52c1.08,0,2.14.06,3.17.2,10.97,1.36,19.81,9.69,21.88,20.43.32,1.58.48,3.21.48,4.89s-.16,3.3-.48,4.89c-1.43,7.41-6.06,13.68-12.4,17.28Z"/>
      </g>
    </g>
  </g>
</svg>